# xmcd CD database file
#
# Track frame offsets:
#	150
#	13180
#	25222
#	38585
#	50432
#	64830
#	81010
#	92505
#	103629
#	115817
#	130300
#	143350
#	157517
#	167025
#	178965
#	192775
#	205450
#	217635
#	230300
#	245895
#
# Disc length: 3488 seconds
#
# Revision: 3
# Processed by: cddbd v1.4PL0 Copyright (c) Steve Scherf et al.
# Submitted via: jetAudio 5
#
DISCID=020d9e14
DTITLE=Seija Lampila - Unohtumattomat
DYEAR=1900
DGENRE=
TTITLE0=Kylm‰ rakkaus
TTITLE1=Kun taivas itkee
TTITLE2=Kenties
TTITLE3=Kaunis morsian
TTITLE4=Habanera
TTITLE5=Sumuinen p‰iv‰
TTITLE6=Broadwayn rytmi
TTITLE7=Delfiinipoika
TTITLE8=Luonasi jos oisin
TTITLE9=Rakkaus ei palaa
TTITLE10=Paljon toivon
TTITLE11=Pikku prinssi p‰iv‰npaiste
TTITLE12=Vanhan kartanon kehr‰‰v‰ rukki
TTITLE13=Tuo suru jonka sain
TTITLE14=Uska dara
TTITLE15=Rakastunut nainen
TTITLE16=Maruzzella
TTITLE17=Kenp‰ tiet‰is sen
TTITLE18=Kellot h‰it‰ jo soittaa
TTITLE19=Madame la Plume
EXTD=
EXTT0=
EXTT1=
EXTT2=
EXTT3=
EXTT4=
EXTT5=
EXTT6=
EXTT7=
EXTT8=
EXTT9=
EXTT10=
EXTT11=
EXTT12=
EXTT13=
EXTT14=
EXTT15=
EXTT16=
EXTT17=
EXTT18=
EXTT19=
PLAYORDER=
